<svg width="27" height="27" viewBox="0 0 27 27" fill="none" xmlns="http://www.w3.org/2000/svg">
<g clip-path="url(#clip0)">
<path d="M24.21 1.99981H2.71C1.99527 2.01264 1.31341 2.30226 0.80794 2.80773C0.302471 3.3132 0.0128348 3.99507 0 4.7098V24.4598H27V4.7098C26.9948 4.34865 26.9185 3.99207 26.7754 3.66042C26.6324 3.32877 26.4254 3.02853 26.1663 2.77688C25.9073 2.52522 25.6011 2.32708 25.2655 2.19375C24.9298 2.06041 24.5711 1.99452 24.21 1.99981V1.99981ZM2.71 3.49981H24.21C24.3742 3.49447 24.5378 3.52152 24.6915 3.57946C24.8452 3.63739 24.986 3.72505 25.1058 3.83742C25.2256 3.9498 25.3221 4.08471 25.3897 4.2344C25.4574 4.38408 25.4948 4.54562 25.5 4.7098V7.49981H1.5V4.7098C1.51285 4.38609 1.64988 4.07977 1.88266 3.85445C2.11543 3.62913 2.42604 3.50212 2.75 3.49981H2.71ZM16.71 9.03978C16.6567 9.31965 16.508 9.57237 16.2891 9.75475C16.0703 9.93713 15.7949 10.0379 15.51 10.0398H11.42C11.1351 10.0379 10.8597 9.93713 10.6409 9.75475C10.422 9.57237 10.2733 9.31965 10.22 9.03978H16.71ZM1.46 23.0398V9.03978H8.7C8.75274 9.72605 9.06184 10.3673 9.56581 10.8361C10.0698 11.3049 10.7317 11.5668 11.42 11.5698H15.51C16.1983 11.5668 16.8602 11.3049 17.3642 10.8361C17.8682 10.3673 18.1773 9.72605 18.23 9.03978H25.46V23.0398H1.46Z" fill="#26282A"/>
<path d="M16.0701 16.3999C16.1425 16.3582 16.2057 16.3021 16.2556 16.235C16.3055 16.1679 16.341 16.0913 16.3601 16.0099C16.3827 15.93 16.3891 15.8463 16.3788 15.7638C16.3685 15.6813 16.3417 15.6018 16.3001 15.5299C16.2146 15.3875 16.0771 15.2838 15.9166 15.2409C15.7561 15.198 15.5852 15.2191 15.4401 15.2999L14.1401 16.0499V14.5499C14.1381 14.463 14.1185 14.3774 14.0824 14.2983C14.0463 14.2192 13.9945 14.1483 13.9301 14.0899C13.8731 14.0318 13.8044 13.9866 13.7285 13.9573C13.6526 13.9279 13.5713 13.9152 13.4901 13.9199C13.3263 13.9274 13.1715 13.9965 13.0565 14.1133C12.9415 14.2301 12.8749 14.3861 12.8701 14.5499V16.0599L11.5801 15.3099C11.5089 15.2666 11.4297 15.238 11.3472 15.226C11.2647 15.214 11.1807 15.2187 11.1001 15.2399C11.0186 15.2589 10.942 15.2945 10.8749 15.3444C10.8078 15.3943 10.7517 15.4574 10.7101 15.5299C10.6681 15.6036 10.6412 15.6848 10.6309 15.7689C10.6206 15.853 10.6271 15.9383 10.6501 16.0199C10.6692 16.1 10.7049 16.1751 10.7548 16.2406C10.8048 16.306 10.8679 16.3603 10.9401 16.3999L12.2401 17.1499L10.9401 17.8999C10.7959 17.9867 10.6917 18.1268 10.6501 18.2899C10.6268 18.3698 10.6201 18.4536 10.6304 18.5361C10.6408 18.6187 10.6679 18.6982 10.7101 18.7699C10.7671 18.8647 10.8478 18.9431 10.9442 18.9974C11.0406 19.0518 11.1494 19.0802 11.2601 19.0799C11.3683 19.0783 11.4746 19.0509 11.5701 18.9999L12.8701 18.2499V19.7099C12.8746 19.8834 12.9463 20.0482 13.0701 20.1699C13.1841 20.2767 13.3338 20.3373 13.4901 20.3399V20.3399C13.6538 20.3324 13.8087 20.2633 13.9236 20.1465C14.0386 20.0297 14.1052 19.8737 14.1101 19.7099V18.2099L14.8501 18.6299L15.4001 18.9599C15.4991 19.011 15.6086 19.0384 15.7201 19.0399C15.7729 19.0497 15.8272 19.0497 15.8801 19.0399C16.0431 18.9983 16.1832 18.8941 16.2701 18.7499C16.312 18.6763 16.3389 18.595 16.3492 18.5109C16.3595 18.4268 16.353 18.3415 16.3301 18.2599C16.3093 18.1805 16.2729 18.1061 16.2232 18.0408C16.1734 17.9756 16.1111 17.9209 16.0401 17.8799L14.7401 17.1299L15.4801 16.6999L16.0701 16.3999Z" fill="#26282A"/>
</g>
<defs>
<clipPath id="clip0">
<rect width="27" height="22.5" fill="white" transform="translate(0 2)"/>
</clipPath>
</defs>
</svg>
