<svg width="27" height="27" viewBox="0 0 27 27" fill="none" xmlns="http://www.w3.org/2000/svg">
<g clip-path="url(#clip0)">
<path d="M20.75 0H5.75C5.02065 0 4.32118 0.289741 3.80546 0.805466C3.28973 1.32119 3 2.02065 3 2.75V27H23.5V2.75C23.5 2.02065 23.2103 1.32119 22.6945 0.805466C22.1788 0.289741 21.4793 0 20.75 0ZM5.75 1.5H20.75C21.0815 1.5 21.3995 1.6317 21.6339 1.86612C21.8683 2.10054 22 2.41848 22 2.75V8.20001H4.5V2.75C4.49868 2.58501 4.53004 2.4214 4.59227 2.26859C4.65449 2.11577 4.74636 1.97678 4.86256 1.85965C4.97877 1.74252 5.11701 1.64955 5.26933 1.58611C5.42164 1.52266 5.585 1.49 5.75 1.49001V1.5ZM4.5 25.5V9.70001H22V25.49L4.5 25.5Z" fill="#26282A"/>
<path d="M7.13989 12.9702C7.69218 12.9702 8.13989 12.5225 8.13989 11.9702C8.13989 11.4179 7.69218 10.9702 7.13989 10.9702C6.58761 10.9702 6.13989 11.4179 6.13989 11.9702C6.13989 12.5225 6.58761 12.9702 7.13989 12.9702Z" fill="#26282A"/>
<path d="M7.13989 6.97021C7.69218 6.97021 8.13989 6.5225 8.13989 5.97021C8.13989 5.41793 7.69218 4.97021 7.13989 4.97021C6.58761 4.97021 6.13989 5.41793 6.13989 5.97021C6.13989 6.5225 6.58761 6.97021 7.13989 6.97021Z" fill="#26282A"/>
</g>
<defs>
<clipPath id="clip0">
<rect width="20.5" height="27" fill="white" transform="translate(3)"/>
</clipPath>
</defs>
</svg>
