<svg width="27" height="27" viewBox="0 0 27 27" fill="none" xmlns="http://www.w3.org/2000/svg">
<g clip-path="url(#clip0)">
<path d="M20.4973 9.95313L24.0859 10.9494C24.1537 10.9667 24.2247 10.9667 24.2924 10.9494C24.4507 10.9478 24.604 10.8932 24.7285 10.7941C24.853 10.695 24.9416 10.5569 24.9807 10.4015C25.0272 10.2133 25.0027 10.0143 24.9118 9.84353C24.8166 9.67792 24.6614 9.55642 24.4792 9.50479L22.267 8.907L24.2334 7.75129C24.4019 7.65357 24.5255 7.49246 24.5775 7.30294C24.6025 7.21052 24.6075 7.11375 24.5922 7.0192C24.5769 6.92465 24.5417 6.83453 24.4891 6.75498C24.4433 6.67077 24.3815 6.59657 24.3072 6.53672C24.233 6.47686 24.1477 6.43253 24.0564 6.40627C23.9636 6.38146 23.8666 6.37662 23.7718 6.39207C23.677 6.40751 23.5864 6.44288 23.5059 6.49593L21.5394 7.66161L22.1294 5.4498C22.173 5.2604 22.1449 5.06132 22.0507 4.89187C22.0062 4.80771 21.9447 4.73402 21.8701 4.67565C21.7956 4.61727 21.7097 4.57552 21.6181 4.55313C21.4343 4.50391 21.2389 4.52953 21.0735 4.62449C20.9081 4.71945 20.786 4.8762 20.7332 5.06124L19.7893 8.64796L16.2105 10.7402L13.7525 9.30553V5.12103L16.3875 2.44096C16.5148 2.30723 16.586 2.12864 16.586 1.9428C16.586 1.75696 16.5148 1.57837 16.3875 1.44465C16.2533 1.32002 16.0779 1.25089 15.8959 1.25089C15.7138 1.25089 15.5384 1.32002 15.4043 1.44465L13.8115 3.06862V0.73726C13.8015 0.539849 13.7176 0.353712 13.577 0.216742C13.4363 0.079772 13.2495 0.00227481 13.0544 0C12.8614 0 12.6764 0.0776713 12.5399 0.215936C12.4035 0.354201 12.3268 0.541724 12.3268 0.73726V3.09851L10.734 1.44465C10.5999 1.32002 10.4245 1.25089 10.2424 1.25089C10.0604 1.25089 9.88502 1.32002 9.75084 1.44465C9.614 1.58158 9.53623 1.76784 9.53453 1.96272C9.53559 2.05771 9.55526 2.15154 9.59239 2.23876C9.62952 2.32599 9.68338 2.40488 9.75084 2.47084L12.3858 5.15092V9.33542L9.92781 10.7701L6.31946 8.67785L5.33625 5.0214C5.28349 4.83636 5.16135 4.67959 4.99598 4.58463C4.83061 4.48967 4.63514 4.46407 4.45137 4.51328C4.26695 4.56465 4.1099 4.68753 4.01422 4.85534C3.91854 5.02315 3.89191 5.2224 3.9401 5.40996L4.53003 7.62176L2.56362 6.45608C2.4823 6.40759 2.39234 6.37583 2.29889 6.3626C2.20544 6.34938 2.11033 6.35495 2.01901 6.37901C1.92769 6.40307 1.84195 6.44514 1.76669 6.50282C1.69143 6.56049 1.62813 6.63263 1.58042 6.71512C1.48637 6.88217 1.46047 7.07984 1.50823 7.26597C1.55598 7.4521 1.67362 7.61195 1.83605 7.71143L3.85162 8.86715L1.6689 9.46494C1.57823 9.48953 1.49329 9.53213 1.41902 9.59029C1.34475 9.64844 1.28264 9.72098 1.23629 9.80369C1.14543 9.97444 1.12088 10.1735 1.16747 10.3616C1.20797 10.5163 1.29703 10.6533 1.42118 10.7522C1.54534 10.851 1.69785 10.9063 1.85571 10.9096C1.91717 10.9241 1.98107 10.9241 2.04252 10.9096L5.62138 9.98301L9.22974 12.0852V14.9446L5.62138 17.0468L2.01302 16.0505C1.82911 16.0125 1.63787 16.0407 1.47226 16.1302C1.38801 16.1737 1.31433 16.2356 1.25652 16.3114C1.19871 16.3872 1.15822 16.475 1.13797 16.5686C1.09018 16.7643 1.11834 16.9712 1.21663 17.1465C1.26255 17.2255 1.32361 17.2944 1.39622 17.3492C1.46882 17.4039 1.55151 17.4434 1.63941 17.4653L3.82212 18.0631L1.80655 19.2288C1.7224 19.2738 1.64838 19.336 1.58915 19.4114C1.52992 19.4869 1.48677 19.5739 1.46243 19.6671C1.43751 19.7596 1.43251 19.8563 1.44778 19.9509C1.46305 20.0455 1.49822 20.1356 1.55092 20.2151C1.61518 20.3259 1.70727 20.4175 1.8178 20.4805C1.92833 20.5435 2.05336 20.5757 2.18017 20.5738C2.30495 20.5742 2.42742 20.5397 2.53412 20.4742L4.50053 19.3085L3.9401 21.5601C3.8971 21.7463 3.92521 21.9421 4.01876 22.1081C4.06116 22.192 4.12086 22.2656 4.1938 22.3241C4.26674 22.3825 4.35123 22.4244 4.44154 22.4469C4.50591 22.4647 4.5738 22.4647 4.63817 22.4469C4.79648 22.441 4.94899 22.385 5.07422 22.2867C5.19945 22.1884 5.2911 22.0527 5.33625 21.8989L6.31946 18.2723L9.89832 16.1801L12.3563 17.6148V21.8092L9.72134 24.4793C9.65388 24.5453 9.60002 24.6242 9.56289 24.7114C9.52575 24.7986 9.50609 24.8925 9.50504 24.9874C9.50534 25.084 9.52461 25.1796 9.56175 25.2685C9.59889 25.3575 9.65315 25.4381 9.72134 25.5055C9.78692 25.5725 9.86507 25.6256 9.95119 25.6615C10.0373 25.6974 10.1296 25.7155 10.2228 25.7148C10.3175 25.7163 10.4115 25.6986 10.4993 25.6626C10.5872 25.6267 10.667 25.5733 10.734 25.5055L12.3268 23.8915V26.2428C12.3255 26.34 12.3434 26.4365 12.3795 26.5265C12.4156 26.6166 12.4692 26.6984 12.537 26.7671C12.6048 26.8358 12.6855 26.8901 12.7744 26.9267C12.8633 26.9632 12.9585 26.9814 13.0544 26.9801C13.1503 26.9814 13.2455 26.9632 13.3344 26.9267C13.4233 26.8901 13.504 26.8358 13.5718 26.7671C13.6396 26.6984 13.6932 26.6166 13.7293 26.5265C13.7654 26.4365 13.7833 26.34 13.782 26.2428V23.8915L15.3748 25.5055C15.5111 25.6424 15.6941 25.7209 15.886 25.7247C15.9805 25.7287 16.0746 25.711 16.1614 25.6731C16.2482 25.6352 16.3255 25.5779 16.3875 25.5055C16.4557 25.4381 16.5099 25.3575 16.547 25.2685C16.5842 25.1796 16.6035 25.084 16.6038 24.9874C16.6027 24.8925 16.583 24.7986 16.5459 24.7114C16.5088 24.6242 16.4549 24.5453 16.3875 24.4793L13.7525 21.8092V17.6148L16.2105 16.1801L19.8483 18.3022L20.8315 21.9586C20.8767 22.1125 20.9683 22.2482 21.0936 22.3465C21.2188 22.4448 21.3713 22.5008 21.5296 22.5066C21.5911 22.5211 21.655 22.5211 21.7164 22.5066C21.9016 22.4531 22.0587 22.3283 22.1543 22.1588C22.2498 21.9894 22.2762 21.7888 22.2277 21.6L21.6378 19.3882L23.6632 20.5539C23.7694 20.6119 23.8868 20.6459 24.0073 20.6535C24.1339 20.6544 24.2586 20.6217 24.3689 20.5588C24.4793 20.4959 24.5715 20.4049 24.6365 20.2948C24.6857 20.2128 24.7182 20.1216 24.7319 20.0266C24.7457 19.9316 24.7405 19.8348 24.7166 19.7419C24.6928 19.649 24.6508 19.5619 24.5931 19.4857C24.5355 19.4095 24.4633 19.3459 24.3809 19.2985L22.4145 18.0731L24.5972 17.4753C24.7794 17.4236 24.9346 17.3021 25.0298 17.1365C25.1207 16.9658 25.1452 16.7668 25.0986 16.5786C25.0784 16.485 25.0379 16.3972 24.9801 16.3214C24.9223 16.2455 24.8486 16.1837 24.7644 16.1402C24.5954 16.0499 24.4009 16.0218 24.2138 16.0605L20.6447 17.0568L16.8397 14.9147V12.0553L20.4973 9.95313ZM15.4632 12.0553V14.9147L13.0052 16.3594L10.5472 14.9147V12.0553L13.0052 10.6207L15.4632 12.0553Z" fill="#26282A"/>
</g>
<defs>
<clipPath id="clip0">
<rect width="24" height="27" fill="white" transform="translate(1)"/>
</clipPath>
</defs>
</svg>
